<?xml version="1.0" standalone="no"?>
<!DOCTYPE svg PUBLIC "-//W3C//DTD SVG 20010904//EN"
 "http://www.w3.org/TR/2001/REC-SVG-20010904/DTD/svg10.dtd">
<svg version="1.0" xmlns="http://www.w3.org/2000/svg"
 width="60px" height="12px" viewBox="0 0 866.000000 146.000000"
 preserveAspectRatio="xMidYMid meet">

<g transform="translate(0.000000,146.000000) scale(0.100000,-0.100000)"
fill="#ff0000" stroke="none">
<path d="M8005 889 c-321 -10 -620 -27 -789 -45 -197 -20 -547 -18 -802 5
-341 31 -463 34 -859 17 -203 -9 -485 -21 -625 -26 -281 -12 -438 -23 -668
-46 -128 -13 -252 -15 -790 -10 -350 3 -731 10 -847 15 -115 5 -421 14 -680
20 -492 12 -671 22 -844 47 -95 14 -105 14 -113 0 -12 -22 -31 -20 -53 4 -10
11 -30 20 -44 20 -20 0 -23 -3 -11 -10 12 -7 12 -12 -4 -29 -11 -12 -16 -27
-12 -37 6 -15 9 -15 29 4 16 15 27 18 37 12 12 -8 7 -17 -27 -52 l-43 -42 -62
63 c-56 58 -60 65 -42 73 13 5 4 7 -27 4 -61 -4 -178 -60 -208 -98 -24 -30
-39 -103 -27 -133 5 -14 14 -10 52 24 52 45 82 51 109 21 15 -17 16 -24 7 -46
-16 -35 -17 -34 30 -34 l41 0 -24 -26 c-18 -20 -31 -25 -54 -21 -16 2 -39 1
-50 -3 -18 -7 -17 -9 10 -20 67 -27 368 -39 1292 -51 864 -11 2487 -7 2643 6
36 3 110 10 165 15 55 5 215 16 355 25 474 28 440 24 440 49 0 13 9 31 20 41
20 18 20 17 20 -19 l0 -37 213 6 c116 4 291 10 387 15 96 5 324 14 505 20 619
19 1170 39 1448 54 32 1 34 5 20 31 -11 19 -22 20 -400 20 -214 0 -449 -6
-523 -13 -212 -18 -480 -26 -480 -14 0 6 35 13 78 17 101 8 353 30 572 50 96
8 285 19 420 25 281 11 389 23 438 47 45 23 63 50 42 63 -8 5 -17 9 -20 8 -3
0 -113 -5 -245 -9z m-7272 -66 c4 -3 -3 -17 -15 -30 -17 -18 -19 -26 -10 -35
9 -9 17 -7 35 10 18 17 26 19 35 10 9 -9 7 -17 -10 -35 -17 -18 -19 -26 -10
-35 9 -9 17 -7 35 10 18 17 26 19 35 10 9 -9 4 -21 -25 -50 -20 -21 -42 -38
-47 -38 -13 0 -116 101 -116 114 0 14 62 76 75 76 7 0 15 -3 18 -7z"/>
<path d="M810 880 c-12 -8 -12 -10 4 -16 11 -4 24 0 34 10 15 15 15 16 -3 16
-11 0 -27 -4 -35 -10z"/>
<path d="M556 631 c-27 -28 -30 -61 -6 -61 14 0 69 62 70 78 0 22 -36 13 -64
-17z"/>
</g>
</svg>
